<svg id="Layer_1" data-name="Layer 1" xmlns="http://www.w3.org/2000/svg" viewBox="0 0 39.74 36.59"><defs><style>.cls-1{fill:#282828;}</style></defs><title>Artboard 8mohr</title><path class="cls-1" d="M26.14,4.5H22.48c-4.11,0-6.77,2.9-6.77,7.38v3.41H12a.59.59,0,0,0-.57.61v4.93a.59.59,0,0,0,.57.61h3.68V33.88a.59.59,0,0,0,.58.61h4.8a.59.59,0,0,0,.57-.61V21.43H26a.59.59,0,0,0,.57-.61V15.89a.65.65,0,0,0-.16-.43.55.55,0,0,0-.41-.18H21.66V12.39c0-1.39.31-2.09,2-2.09h2.47a.6.6,0,0,0,.58-.61V5.11A.59.59,0,0,0,26.14,4.5Z"/></svg>