<svg id="Layer_1" data-name="Layer 1" xmlns="http://www.w3.org/2000/svg" viewBox="0 0 39.74 36.59"><defs><style>.cls-1{fill:#282828;}</style></defs><title>Artboard 8 copy 2mohr</title><path class="cls-1" d="M26.54,3.49H13.1a8.28,8.28,0,0,0-8.28,8.28V25.21a8.28,8.28,0,0,0,8.28,8.28H26.54a8.28,8.28,0,0,0,8.28-8.28V11.77A8.28,8.28,0,0,0,26.54,3.49Zm5.62,21.72a5.62,5.62,0,0,1-5.62,5.62H13.1a5.62,5.62,0,0,1-5.62-5.62V11.77A5.62,5.62,0,0,1,13.1,6.15H26.54a5.62,5.62,0,0,1,5.62,5.62V25.21Z"/><path class="cls-1" d="M19.82,10.76a7.73,7.73,0,1,0,7.73,7.73A7.74,7.74,0,0,0,19.82,10.76Zm0,12.8a5.07,5.07,0,1,1,5.07-5.07A5.08,5.08,0,0,1,19.82,23.56Z"/><path class="cls-1" d="M27.87,8.5a2,2,0,0,0,0,3.91,2,2,0,1,0,0-3.91Z"/></svg>