<svg id="Layer_1" data-name="Layer 1" xmlns="http://www.w3.org/2000/svg" viewBox="0 0 39.74 36.59"><defs><style>.cls-1{fill:#282828;}</style></defs><title>Artboard 8 copy 4mohr</title><path id="LinkedIn" class="cls-1" d="M35.49,21.88V33.49H28.76V22.66c0-2.72-1-4.58-3.41-4.58a3.69,3.69,0,0,0-3.45,2.46,4.59,4.59,0,0,0-.22,1.64V33.49H15S15,15.15,15,13.25h6.73v2.87l-.05.06h.05v-.06a6.67,6.67,0,0,1,6.06-3.35C32.17,12.77,35.49,15.66,35.49,21.88ZM7.91,3.49a3.51,3.51,0,1,0-.09,7h0a3.51,3.51,0,1,0,0-7Zm-3.41,30h6.73V13.25H4.5Z"/></svg>