<svg id="Layer_1" data-name="Layer 1" xmlns="http://www.w3.org/2000/svg" viewBox="0 0 39.74 36.59"><defs><style>.cls-1{fill:#282828;}</style></defs><title>Artboard 8 copymohr</title><path class="cls-1" d="M39.33,8A16,16,0,0,1,35,9.24,7.52,7.52,0,0,0,38.3,5.05a15.07,15.07,0,0,1-4.8,1.83,7.57,7.57,0,0,0-13.09,5.18,8.12,8.12,0,0,0,.17,1.73A21.45,21.45,0,0,1,5,5.87,7.59,7.59,0,0,0,7.31,16a7.5,7.5,0,0,1-3.42-.94v.09A7.59,7.59,0,0,0,10,22.57a7.41,7.41,0,0,1-2,.25,6.09,6.09,0,0,1-1.43-.13A7.64,7.64,0,0,0,13.61,28,15.26,15.26,0,0,1,4.22,31.2a13.54,13.54,0,0,1-1.81-.11A21.33,21.33,0,0,0,14,34.49C28,34.49,35.57,23,35.57,13c0-.34,0-.66,0-1A15.07,15.07,0,0,0,39.33,8Z"/></svg>