<svg id="Layer_1" data-name="Layer 1" xmlns="http://www.w3.org/2000/svg" viewBox="0 0 137.5 126.62"><defs><style>.cls-1{fill:#fcb662;}.cls-2{fill:#6f9696;}.cls-3{fill:#282828;}</style></defs><title>Artboard 7mohr</title><rect class="cls-1" x="25.96" y="75.35" width="110.54" height="45.47"/><rect class="cls-2" x="39.35" y="36.46" width="48.61" height="39.34"/><path class="cls-3" d="M119,54.55l-18.8-15.92v-3a1.69,1.69,0,0,0-.51-1.22l-21-21h0a1.72,1.72,0,0,0-1.25-.53H47.21a9.54,9.54,0,0,0-9.54,9.53V38.64L19,54.5a1.72,1.72,0,0,0-1,1.56v53.46a11.58,11.58,0,0,0,11.57,11.57h78.78a11.59,11.59,0,0,0,11.58-11.57V56.06A1.73,1.73,0,0,0,119,54.55Zm-3.49,1.56-15.31,13V43.14ZM79.11,18.75,94.36,34H85.19a6.09,6.09,0,0,1-6.08-6.09Zm-31.9-2.43H75.66V27.89a9.55,9.55,0,0,0,9.53,9.54H96.76V72L74.21,91.14a8.09,8.09,0,0,1-10.5,0L41.12,72V22.41A6.11,6.11,0,0,1,47.21,16.32ZM37.67,43.16V69.1l-15.3-13Zm-8.12,74.49A8.1,8.1,0,0,1,24.63,116l23.56-24.1a1.72,1.72,0,0,0-2.46-2.41L22.39,113.35a8,8,0,0,1-1-3.83V59.86L38.3,74.15h0L61.48,93.77a11.53,11.53,0,0,0,15,0l40-33.94v49.69a8,8,0,0,1-1,3.84L92,89.47a1.72,1.72,0,0,0-2.46,2.41L113.24,116a8.12,8.12,0,0,1-4.91,1.66Z"/><path class="cls-3" d="M64.2,66.21a2.76,2.76,0,0,0,3.84.35L85.71,52.18a2.75,2.75,0,1,0-3.48-4.27L66.64,60.58,60.8,53.74a2.76,2.76,0,1,0-4.19,3.58Z"/></svg>